<svg id="visual" viewBox="0 0 960 540" width="960" height="540" xmlns="http://www.w3.org/2000/svg" xmlns:xlink="http://www.w3.org/1999/xlink" version="1.1"><rect x="0" y="0" width="960" height="540" fill="#001220"></rect><defs><linearGradient id="grad1_0" x1="43.8%" y1="0%" x2="100%" y2="100%"><stop offset="14.444444444444446%" stop-color="#001220" stop-opacity="1"></stop><stop offset="85.55555555555554%" stop-color="#001220" stop-opacity="1"></stop></linearGradient></defs><defs><linearGradient id="grad2_0" x1="0%" y1="0%" x2="56.3%" y2="100%"><stop offset="14.444444444444446%" stop-color="#001220" stop-opacity="1"></stop><stop offset="85.55555555555554%" stop-color="#001220" stop-opacity="1"></stop></linearGradient></defs><g transform="translate(960, 0)"><path d="M0 486C-57 456 -113.9 426 -164.9 398.2C-216 370.3 -261.1 344.6 -311.8 311.8C-362.6 279 -419 239.1 -449 186C-479 132.8 -482.5 66.4 -486 0L0 0Z" fill="#FBAE3C"></path></g><g transform="translate(0, 540)"><path d="M0 -486C67.3 -483.2 134.6 -480.3 186 -449C237.3 -417.7 272.7 -357.9 308.3 -308.3C343.9 -258.7 379.6 -219.2 409.3 -169.5C438.9 -119.8 462.5 -59.9 486 0L0 0Z" fill="#FBAE3C"></path></g></svg>