<svg id="visual" viewBox="0 0 900 600" width="900" height="600" xmlns="http://www.w3.org/2000/svg" xmlns:xlink="http://www.w3.org/1999/xlink" version="1.1"><rect x="0" y="0" width="900" height="600" fill="#fff"></rect><g transform="translate(448.9481932516131 310.18246889869437)"><path d="M96 -162.6C128.3 -147.6 161.2 -129.8 170.7 -102.2C180.3 -74.7 166.7 -37.3 159.2 -4.3C151.7 28.7 150.3 57.3 142 87.1C133.6 116.8 118.3 147.6 93.5 158.6C68.7 169.6 34.3 160.8 0 160.8C-34.3 160.8 -68.7 169.6 -101.1 163C-133.6 156.4 -164.2 134.5 -170.6 104.7C-176.9 75 -159 37.5 -146.8 7C-134.6 -23.4 -128.2 -46.9 -117.6 -69.3C-107 -91.6 -92.3 -112.9 -72 -134.9C-51.7 -156.8 -25.8 -179.4 3 -184.6C31.8 -189.8 63.7 -177.6 96 -162.6" fill="#1e3a8a"></path></g></svg>