<svg id="visual" viewBox="0 0 900 600" width="900" height="600" xmlns="http://www.w3.org/2000/svg" xmlns:xlink="http://www.w3.org/1999/xlink" version="1.1"><path d="M0 67L13.7 74C27.3 81 54.7 95 82 98C109.3 101 136.7 93 163.8 89C191 85 218 85 245.2 88C272.3 91 299.7 97 327 94C354.3 91 381.7 79 409 72C436.3 65 463.7 63 491 63C518.3 63 545.7 65 573 74C600.3 83 627.7 99 654.8 102C682 105 709 95 736.2 99C763.3 103 790.7 121 818 120C845.3 119 872.7 99 886.3 89L900 79L900 0L886.3 0C872.7 0 845.3 0 818 0C790.7 0 763.3 0 736.2 0C709 0 682 0 654.8 0C627.7 0 600.3 0 573 0C545.7 0 518.3 0 491 0C463.7 0 436.3 0 409 0C381.7 0 354.3 0 327 0C299.7 0 272.3 0 245.2 0C218 0 191 0 163.8 0C136.7 0 109.3 0 82 0C54.7 0 27.3 0 13.7 0L0 0Z" fill="#4d61aa"></path><path d="M0 151L13.7 151C27.3 151 54.7 151 82 152C109.3 153 136.7 155 163.8 154C191 153 218 149 245.2 148C272.3 147 299.7 149 327 147C354.3 145 381.7 139 409 136C436.3 133 463.7 133 491 134C518.3 135 545.7 137 573 147C600.3 157 627.7 175 654.8 176C682 177 709 161 736.2 163C763.3 165 790.7 185 818 181C845.3 177 872.7 149 886.3 135L900 121L900 77L886.3 87C872.7 97 845.3 117 818 118C790.7 119 763.3 101 736.2 97C709 93 682 103 654.8 100C627.7 97 600.3 81 573 72C545.7 63 518.3 61 491 61C463.7 61 436.3 63 409 70C381.7 77 354.3 89 327 92C299.7 95 272.3 89 245.2 86C218 83 191 83 163.8 87C136.7 91 109.3 99 82 96C54.7 93 27.3 79 13.7 72L0 65Z" fill="#374d9a"></path><path d="M0 421L13.7 405C27.3 389 54.7 357 82 342C109.3 327 136.7 329 163.8 329C191 329 218 327 245.2 323C272.3 319 299.7 313 327 323C354.3 333 381.7 359 409 369C436.3 379 463.7 373 491 373C518.3 373 545.7 379 573 366C600.3 353 627.7 321 654.8 315C682 309 709 329 736.2 329C763.3 329 790.7 309 818 314C845.3 319 872.7 349 886.3 364L900 379L900 119L886.3 133C872.7 147 845.3 175 818 179C790.7 183 763.3 163 736.2 161C709 159 682 175 654.8 174C627.7 173 600.3 155 573 145C545.7 135 518.3 133 491 132C463.7 131 436.3 131 409 134C381.7 137 354.3 143 327 145C299.7 147 272.3 145 245.2 146C218 147 191 151 163.8 152C136.7 153 109.3 151 82 150C54.7 149 27.3 149 13.7 149L0 149Z" fill="#1e3a8a"></path><path d="M0 547L13.7 545C27.3 543 54.7 539 82 531C109.3 523 136.7 511 163.8 515C191 519 218 539 245.2 542C272.3 545 299.7 531 327 531C354.3 531 381.7 545 409 552C436.3 559 463.7 559 491 550C518.3 541 545.7 523 573 523C600.3 523 627.7 541 654.8 543C682 545 709 531 736.2 527C763.3 523 790.7 529 818 530C845.3 531 872.7 527 886.3 525L900 523L900 377L886.3 362C872.7 347 845.3 317 818 312C790.7 307 763.3 327 736.2 327C709 327 682 307 654.8 313C627.7 319 600.3 351 573 364C545.7 377 518.3 371 491 371C463.7 371 436.3 377 409 367C381.7 357 354.3 331 327 321C299.7 311 272.3 317 245.2 321C218 325 191 327 163.8 327C136.7 327 109.3 325 82 340C54.7 355 27.3 387 13.7 403L0 419Z" fill="#173378"></path><path d="M0 601L13.7 601C27.3 601 54.7 601 82 601C109.3 601 136.7 601 163.8 601C191 601 218 601 245.2 601C272.3 601 299.7 601 327 601C354.3 601 381.7 601 409 601C436.3 601 463.7 601 491 601C518.3 601 545.7 601 573 601C600.3 601 627.7 601 654.8 601C682 601 709 601 736.2 601C763.3 601 790.7 601 818 601C845.3 601 872.7 601 886.3 601L900 601L900 521L886.3 523C872.7 525 845.3 529 818 528C790.7 527 763.3 521 736.2 525C709 529 682 543 654.8 541C627.7 539 600.3 521 573 521C545.7 521 518.3 539 491 548C463.7 557 436.3 557 409 550C381.7 543 354.3 529 327 529C299.7 529 272.3 543 245.2 540C218 537 191 517 163.8 513C136.7 509 109.3 521 82 529C54.7 537 27.3 541 13.7 543L0 545Z" fill="#122c66"></path></svg>