<svg id="visual" viewBox="0 0 960 540" width="960" height="540" xmlns="http://www.w3.org/2000/svg" xmlns:xlink="http://www.w3.org/1999/xlink" version="1.1"><rect x="0" y="0" width="960" height="540" fill="#002233"></rect><path d="M0 309L26.7 324.7C53.3 340.3 106.7 371.7 160 383.5C213.3 395.3 266.7 387.7 320 369.2C373.3 350.7 426.7 321.3 480 296.7C533.3 272 586.7 252 640 261C693.3 270 746.7 308 800 320.8C853.3 333.7 906.7 321.3 933.3 315.2L960 309L960 541L933.3 541C906.7 541 853.3 541 800 541C746.7 541 693.3 541 640 541C586.7 541 533.3 541 480 541C426.7 541 373.3 541 320 541C266.7 541 213.3 541 160 541C106.7 541 53.3 541 26.7 541L0 541Z" fill="#0066FF" stroke-linecap="round" stroke-linejoin="miter"></path></svg>