<svg id="visual" viewBox="0 0 900 600" width="900" height="600" xmlns="http://www.w3.org/2000/svg" xmlns:xlink="http://www.w3.org/1999/xlink" version="1.1">
  <rect x="0" y="0" width="900" height="600" fill="#fff">
  </rect>
  <path d="M0 387L12.5 402.5C25 418 50 449 75 465.3C100 481.7 125 483.3 150 473.2C175 463 200 441 225 429.5C250 418 275 417 300 415.8C325 414.7 350 413.3 375 418.2C400 423 425 434 450 424.2C475 414.3 500 383.7 525 372C550 360.3 575 367.7 600 379.3C625 391 650 407 675 410.3C700 413.7 725 404.3 750 404C775 403.7 800 412.3 825 426.7C850 441 875 461 887.5 471L900 481L900 601L887.5 601C875 601 850 601 825 601C800 601 775 601 750 601C725 601 700 601 675 601C650 601 625 601 600 601C575 601 550 601 525 601C500 601 475 601 450 601C425 601 400 601 375 601C350 601 325 601 300 601C275 601 250 601 225 601C200 601 175 601 150 601C125 601 100 601 75 601C50 601 25 601 12.5 601L0 601Z" fill="#0066FF" stroke-linecap="round" stroke-linejoin="miter">
  </path>
</svg>
